<?xml version="1.0" encoding="UTF-8"?>
<!DOCTYPE svg PUBLIC "-//W3C//DTD SVG 1.1//EN" "http://www.w3.org/Graphics/SVG/1.1/DTD/svg11.dtd">
<svg xmlns="http://www.w3.org/2000/svg" version="1.1" width="109px" height="24px" style="shape-rendering:geometricPrecision; text-rendering:geometricPrecision; image-rendering:optimizeQuality; fill-rule:evenodd; clip-rule:evenodd" xmlns:xlink="http://www.w3.org/1999/xlink">
<g><path style="opacity:0.666" fill="#fe0000" d="M 63.5,-0.5 C 64.8333,-0.5 66.1667,-0.5 67.5,-0.5C 68.7734,2.90066 67.44,4.23399 63.5,3.5C 63.5,2.16667 63.5,0.833333 63.5,-0.5 Z"/></g>
<g><path style="opacity:0.738" fill="#fe0000" d="M 50.5,0.5 C 52.1992,0.339822 53.8659,0.506489 55.5,1C 54.3977,3.40086 54.231,5.90086 55,8.5C 55.5,8 56,7.5 56.5,7C 60.1516,6.50137 63.8183,6.3347 67.5,6.5C 67.0349,10.3994 66.3682,14.2328 65.5,18C 62.5,18.6667 59.5,18.6667 56.5,18C 55.2986,17.0975 54.4652,15.9308 54,14.5C 53.313,17.4256 51.4797,18.7589 48.5,18.5C 49.3307,12.5209 49.9973,6.52095 50.5,0.5 Z M 61.5,7.5 C 62.7422,10.7402 62.5755,14.0736 61,17.5C 59.8333,15.6667 58.6667,13.8333 57.5,12C 59.0414,10.6288 60.3747,9.12879 61.5,7.5 Z"/></g>
<g><path style="opacity:0.829" fill="#fe0000" d="M 22.5,11.5 C 20.1667,11.5 17.8333,11.5 15.5,11.5C 15.0074,13.8056 14.6741,16.139 14.5,18.5C 12.712,18.7852 11.0453,18.4519 9.5,17.5C 10.6575,12.2402 11.3241,6.90686 11.5,1.5C 15.5546,1.17575 19.5546,1.50909 23.5,2.5C 21.5175,4.02446 19.1841,5.02446 16.5,5.5C 16.1667,6.16667 15.8333,6.83333 15.5,7.5C 17.7427,8.47423 20.076,8.80756 22.5,8.5C 22.5,9.5 22.5,10.5 22.5,11.5 Z"/></g>
<g><path style="opacity:0.753" fill="#fe0000" d="M 22.5,11.5 C 23.4511,10.0813 23.7845,8.41467 23.5,6.5C 24.8333,6.5 26.1667,6.5 27.5,6.5C 27.5,9.16667 27.5,11.8333 27.5,14.5C 28.5,14.5 29.5,14.5 30.5,14.5C 31.0916,11.8728 31.4249,9.20616 31.5,6.5C 33.1992,6.33982 34.8659,6.50649 36.5,7C 35.7256,9.405 35.2256,11.905 35,14.5C 34.5348,15.9308 33.7014,17.0975 32.5,18C 29.8333,18.6667 27.1667,18.6667 24.5,18C 22.771,16.2111 22.1043,14.0444 22.5,11.5 Z"/></g>
<g><path style="opacity:0.724" fill="#fe0000" d="M 40.5,6.5 C 43.1667,6.5 45.8333,6.5 48.5,6.5C 48.5,7.83333 48.5,9.16667 48.5,10.5C 45.6359,10.0642 43.3025,10.8975 41.5,13C 43.2495,14.3186 45.2495,14.8186 47.5,14.5C 47.5,15.8333 47.5,17.1667 47.5,18.5C 37.0784,19.2065 34.745,15.2065 40.5,6.5 Z"/></g>
<g><path style="opacity:0.76" fill="#fe0000" d="M 69.5,6.5 C 73.1817,6.3347 76.8484,6.50137 80.5,7C 81.4601,10.73 81.7935,14.5633 81.5,18.5C 79.8333,18.5 78.1667,18.5 76.5,18.5C 77.0916,15.8728 77.4249,13.2062 77.5,10.5C 76.1779,10.33 75.0113,10.6634 74,11.5C 73.7638,13.764 73.2638,15.9307 72.5,18C 71.2068,18.49 69.8734,18.6567 68.5,18.5C 69.0209,14.5191 69.3542,10.5191 69.5,6.5 Z"/></g>
<g><path style="opacity:0.752" fill="#fe0000" d="M 93.5,23.5 C 90.5,23.5 87.5,23.5 84.5,23.5C 83.9332,21.9705 83.2666,20.4705 82.5,19C 85.2785,18.8508 85.7785,18.0174 84,16.5C 81.935,9.27772 84.6017,5.94439 92,6.5C 93.8333,6.83333 95.6667,7.16667 97.5,7.5C 96.9741,13.121 95.6407,18.4544 93.5,23.5 Z M 88.5,10.5 C 91.1662,10.0658 92.3329,11.0658 92,13.5C 88.4034,15.0661 87.2368,14.0661 88.5,10.5 Z"/></g>
</svg>
